<?xml version="1.0" encoding="UTF-8" standalone="no"?>
<!DOCTYPE svg PUBLIC "-//W3C//DTD SVG 1.1//EN" "http://www.w3.org/Graphics/SVG/1.1/DTD/svg11.dtd">
<svg width="100%" height="100%" viewBox="0 0 4000 1000" version="1.1" xmlns="http://www.w3.org/2000/svg" xmlns:xlink="http://www.w3.org/1999/xlink" xml:space="preserve" xmlns:serif="http://www.serif.com/" style="fill-rule:evenodd;clip-rule:evenodd;stroke-linecap:round;stroke-linejoin:round;stroke-miterlimit:1.5;">
    <rect id="WooperBoard" x="0" y="0" width="4000" height="1000" style="fill:none;"/>
    <clipPath id="_clip1">
        <rect id="WooperBoard1" serif:id="WooperBoard" x="0" y="0" width="4000" height="1000"/>
    </clipPath>
    <g clip-path="url(#_clip1)">
        <rect id="background" x="0" y="0" width="4000" height="1000" style="fill:rgb(0,139,190);"/>
        <g id="wooper">
            <path d="M2354.64,422.425C2316.8,419.689 2278.94,418.575 2241.04,422.425C2220.72,341.264 2162.3,179.238 2144.89,188.748C2124.94,191.667 2155.21,361.055 2170.97,433.037C2151.21,433.84 2133.6,436.042 2115.25,438.02C2093.33,383.05 2056.88,279.683 2030.25,275.761C2007.06,272.346 2036.32,381.579 2060.56,438.02C2004.91,442.105 1973.15,449.52 1972.06,461.212C1965.32,474.048 1991.08,481.433 2061.74,481.289C2033.21,535.602 1999.95,648.335 2022.21,644.45C2039.32,648.688 2086.53,543.918 2110.59,486.73C2133.07,485.005 2152.86,483.961 2171.03,483.326C2140.52,556.665 2089.26,725.172 2116.12,712.645C2141.33,717.775 2198.88,566.253 2220.49,483.482C2265.97,489.576 2310.31,489.096 2353.69,483.074C2364.26,464.502 2365.81,444.484 2354.64,422.425Z" style="fill:rgb(182,139,167);stroke:rgb(0,46,55);stroke-width:6.25px;"/>
            <path d="M2296.91,419.882C2387.98,-106.853 3166.21,-25.141 3268.17,406.476C3293.71,604.428 3216.85,772.209 2939.35,823.185C2921.63,826.323 2917.55,842.285 2933.17,865.542C2984.12,941.411 2979.02,1043.99 3023.35,1125.82C3153.95,866.922 3258.58,769.903 3312.08,740.905C3475.71,652.222 3436.97,946.536 3328.46,1170.45L2473.86,1252.78C2512.9,1109.41 2557.75,964.562 2650.68,849.496C2674.18,825.182 2667.18,807.406 2647.84,793.76C2359.66,774.677 2277.44,573.397 2296.91,419.882Z" style="fill:rgb(156,218,229);stroke:rgb(0,46,55);stroke-width:6.25px;"/>
            <path d="M3154.69,405.266C3202.89,405.725 3246.18,407.9 3284.66,411.753C3322.21,335.055 3397.13,176.522 3422.49,188.748C3457.38,205.568 3380.23,343.11 3349.67,422.425C3384.93,423.807 3419.28,424.254 3451.47,422.425C3475.97,363.378 3530.82,253.187 3545.52,263.086C3561.09,273.567 3526.54,378.604 3501.98,437.74C3545.46,445.246 3615.95,447.089 3614.76,465.939C3613.39,487.704 3561.87,486.797 3513.57,487.97C3527.19,530.674 3547.52,621.508 3535.3,634.596C3520.24,650.721 3475.4,544.494 3449.9,487.639C3420.83,487.699 3389.48,487.158 3352.47,485.133C3385.18,587.221 3406.72,676.356 3385.83,687.291C3369.36,695.911 3314.37,562.007 3288.72,482.292C3246.74,482.271 3201.17,480.16 3147.18,473.152C3129.54,446.751 3130.14,423.765 3154.69,405.266Z" style="fill:rgb(182,139,167);stroke:rgb(0,46,55);stroke-width:6.25px;"/>
            <ellipse cx="2539.93" cy="307.675" rx="39.261" ry="37.148" style="fill:rgb(0,46,55);"/>
            <g transform="matrix(1,0,0,1,434.978,0)">
                <ellipse cx="2539.93" cy="307.675" rx="39.261" ry="37.148" style="fill:rgb(0,46,55);"/>
            </g>
            <g transform="matrix(0.351424,0,0,0.351424,1633.54,206.172)">
                <ellipse cx="2539.93" cy="307.675" rx="39.261" ry="37.148" style="fill:rgb(223,250,255);"/>
            </g>
            <g transform="matrix(0.351424,0,0,0.351424,2074.31,205.172)">
                <ellipse cx="2539.93" cy="307.675" rx="39.261" ry="37.148" style="fill:rgb(223,250,255);"/>
            </g>
            <g transform="matrix(1,0,0,1,9.62177,-35.7536)">
                <path d="M2414.45,458.178C2403.04,531.185 3052.66,576.165 3077.18,484.007" style="fill:none;stroke:rgb(0,46,55);stroke-width:10.42px;"/>
            </g>
            <path d="M2684.67,896.956C2730.97,903.304 2775.15,902.341 2816.97,893.203C2827.59,924.613 2801.93,940.326 2747.63,943.653C2693.66,939.64 2675.03,923.248 2684.67,896.956Z" style="fill:rgb(15,47,94);stroke:rgb(0,46,55);stroke-width:6.25px;"/>
            <g transform="matrix(1.44315,0,0,1.28841,-1232.39,-164.239)">
                <path d="M2685.36,890.897C2729.63,905.537 2773.91,909.003 2816.97,893.203C2832.02,921.935 2801.93,940.326 2747.63,943.653C2693.66,939.64 2672.74,913.685 2685.36,890.897Z" style="fill:rgb(15,47,94);stroke:rgb(0,46,55);stroke-width:4.57px;"/>
            </g>
        </g>
        <g id="bubbles">
            <g id="bubble" transform="matrix(0.516079,0,0,0.516079,-58.9913,45.4439)">
                <g transform="matrix(0.980034,0,0,1.02568,10.6811,-5.24665)">
                    <ellipse cx="708.437" cy="370.054" rx="173.463" ry="165.744" style="fill:rgb(41,178,255);stroke:rgb(0,113,176);stroke-width:12.07px;"/>
                </g>
                <g transform="matrix(1.09846,0,0,0.882966,-84.6133,60.7054)">
                    <ellipse cx="718.812" cy="412.655" rx="131.558" ry="131.654" style="fill:rgb(121,207,255);"/>
                </g>
                <g transform="matrix(1.22978,0,0,1.25826,-147.095,-89.6069)">
                    <ellipse cx="630.944" cy="332.535" rx="36.98" ry="36.162" style="fill:rgb(184,229,255);"/>
                </g>
            </g>
            <g id="bubble1" serif:id="bubble" transform="matrix(0.516079,0,0,0.516079,1304.14,579.393)">
                <g transform="matrix(0.980034,0,0,1.02568,10.6811,-5.24665)">
                    <ellipse cx="708.437" cy="370.054" rx="173.463" ry="165.744" style="fill:rgb(41,178,255);stroke:rgb(0,113,176);stroke-width:12.07px;"/>
                </g>
                <g transform="matrix(1.09846,0,0,0.882966,-84.6133,60.7054)">
                    <ellipse cx="718.812" cy="412.655" rx="131.558" ry="131.654" style="fill:rgb(121,207,255);"/>
                </g>
                <g transform="matrix(1.22978,0,0,1.25826,-147.095,-89.6069)">
                    <ellipse cx="630.944" cy="332.535" rx="36.98" ry="36.162" style="fill:rgb(184,229,255);"/>
                </g>
            </g>
            <g id="bubble2" serif:id="bubble" transform="matrix(0.448795,0,0,0.448795,172.812,444.895)">
                <g transform="matrix(0.980034,0,0,1.02568,10.6811,-5.24665)">
                    <ellipse cx="708.437" cy="370.054" rx="173.463" ry="165.744" style="fill:rgb(41,178,255);stroke:rgb(0,113,176);stroke-width:13.88px;"/>
                </g>
                <g transform="matrix(1.09846,0,0,0.882966,-84.6133,60.7054)">
                    <ellipse cx="718.812" cy="412.655" rx="131.558" ry="131.654" style="fill:rgb(121,207,255);"/>
                </g>
                <g transform="matrix(1.22978,0,0,1.25826,-147.095,-89.6069)">
                    <ellipse cx="630.944" cy="332.535" rx="36.98" ry="36.162" style="fill:rgb(184,229,255);"/>
                </g>
            </g>
            <g id="bubble3" serif:id="bubble" transform="matrix(0.642569,0,0,0.642569,1127.23,133.528)">
                <g transform="matrix(0.980034,0,0,1.02568,10.6811,-5.24665)">
                    <ellipse cx="708.437" cy="370.054" rx="173.463" ry="165.744" style="fill:rgb(41,178,255);stroke:rgb(0,113,176);stroke-width:9.7px;"/>
                </g>
                <g transform="matrix(1.09846,0,0,0.882966,-84.6133,60.7054)">
                    <ellipse cx="718.812" cy="412.655" rx="131.558" ry="131.654" style="fill:rgb(121,207,255);"/>
                </g>
                <g transform="matrix(1.22978,0,0,1.25826,-147.095,-89.6069)">
                    <ellipse cx="630.944" cy="332.535" rx="36.98" ry="36.162" style="fill:rgb(184,229,255);"/>
                </g>
            </g>
            <g id="bubble4" serif:id="bubble" transform="matrix(0.364024,0,0,0.364024,627.625,614.805)">
                <g transform="matrix(0.980034,0,0,1.02568,10.6811,-5.24665)">
                    <ellipse cx="708.437" cy="370.054" rx="173.463" ry="165.744" style="fill:rgb(41,178,255);stroke:rgb(0,113,176);stroke-width:17.12px;"/>
                </g>
                <g transform="matrix(1.09846,0,0,0.882966,-84.6133,60.7054)">
                    <ellipse cx="718.812" cy="412.655" rx="131.558" ry="131.654" style="fill:rgb(121,207,255);"/>
                </g>
                <g transform="matrix(1.22978,0,0,1.25826,-147.095,-89.6069)">
                    <ellipse cx="630.944" cy="332.535" rx="36.98" ry="36.162" style="fill:rgb(184,229,255);"/>
                </g>
            </g>
            <g id="bubble5" serif:id="bubble" transform="matrix(0.364024,0,0,0.364024,3589.95,581.625)">
                <g transform="matrix(0.980034,0,0,1.02568,10.6811,-5.24665)">
                    <ellipse cx="708.437" cy="370.054" rx="173.463" ry="165.744" style="fill:rgb(41,178,255);stroke:rgb(0,113,176);stroke-width:17.12px;"/>
                </g>
                <g transform="matrix(1.09846,0,0,0.882966,-84.6133,60.7054)">
                    <ellipse cx="718.812" cy="412.655" rx="131.558" ry="131.654" style="fill:rgb(121,207,255);"/>
                </g>
                <g transform="matrix(1.22978,0,0,1.25826,-147.095,-89.6069)">
                    <ellipse cx="630.944" cy="332.535" rx="36.98" ry="36.162" style="fill:rgb(184,229,255);"/>
                </g>
            </g>
            <g id="bubble6" serif:id="bubble" transform="matrix(0.236859,0,0,0.236859,914.13,86.2101)">
                <g transform="matrix(0.980034,0,0,1.02568,10.6811,-5.24665)">
                    <ellipse cx="708.437" cy="370.054" rx="173.463" ry="165.744" style="fill:rgb(41,178,255);stroke:rgb(0,113,176);stroke-width:26.3px;"/>
                </g>
                <g transform="matrix(1.09846,0,0,0.882966,-84.6133,60.7054)">
                    <ellipse cx="718.812" cy="412.655" rx="131.558" ry="131.654" style="fill:rgb(121,207,255);"/>
                </g>
                <g transform="matrix(1.22978,0,0,1.25826,-147.095,-89.6069)">
                    <ellipse cx="630.944" cy="332.535" rx="36.98" ry="36.162" style="fill:rgb(184,229,255);"/>
                </g>
            </g>
            <g id="bubble7" serif:id="bubble" transform="matrix(0.180356,0,0,0.180356,523.077,242.334)">
                <g transform="matrix(0.980034,0,0,1.02568,10.6811,-5.24665)">
                    <ellipse cx="708.437" cy="370.054" rx="173.463" ry="165.744" style="fill:rgb(41,178,255);stroke:rgb(0,113,176);stroke-width:34.55px;"/>
                </g>
                <g transform="matrix(1.09846,0,0,0.882966,-84.6133,60.7054)">
                    <ellipse cx="718.812" cy="412.655" rx="131.558" ry="131.654" style="fill:rgb(121,207,255);"/>
                </g>
                <g transform="matrix(1.22978,0,0,1.25826,-147.095,-89.6069)">
                    <ellipse cx="630.944" cy="332.535" rx="36.98" ry="36.162" style="fill:rgb(184,229,255);"/>
                </g>
            </g>
            <g id="bubble8" serif:id="bubble" transform="matrix(0.236859,0,0,0.236859,2149.34,731.375)">
                <g transform="matrix(0.980034,0,0,1.02568,10.6811,-5.24665)">
                    <ellipse cx="708.437" cy="370.054" rx="173.463" ry="165.744" style="fill:rgb(41,178,255);stroke:rgb(0,113,176);stroke-width:26.3px;"/>
                </g>
                <g transform="matrix(1.09846,0,0,0.882966,-84.6133,60.7054)">
                    <ellipse cx="718.812" cy="412.655" rx="131.558" ry="131.654" style="fill:rgb(121,207,255);"/>
                </g>
                <g transform="matrix(1.22978,0,0,1.25826,-147.095,-89.6069)">
                    <ellipse cx="630.944" cy="332.535" rx="36.98" ry="36.162" style="fill:rgb(184,229,255);"/>
                </g>
            </g>
            <g id="bubble9" serif:id="bubble" transform="matrix(0.236859,0,0,0.236859,3105.43,86.2101)">
                <g transform="matrix(0.980034,0,0,1.02568,10.6811,-5.24665)">
                    <ellipse cx="708.437" cy="370.054" rx="173.463" ry="165.744" style="fill:rgb(41,178,255);stroke:rgb(0,113,176);stroke-width:26.3px;"/>
                </g>
                <g transform="matrix(1.09846,0,0,0.882966,-84.6133,60.7054)">
                    <ellipse cx="718.812" cy="412.655" rx="131.558" ry="131.654" style="fill:rgb(121,207,255);"/>
                </g>
                <g transform="matrix(1.22978,0,0,1.25826,-147.095,-89.6069)">
                    <ellipse cx="630.944" cy="332.535" rx="36.98" ry="36.162" style="fill:rgb(184,229,255);"/>
                </g>
            </g>
        </g>
    </g>
</svg>
